<?xml version="1.0" standalone="no"?>
<!DOCTYPE svg PUBLIC "-//W3C//DTD SVG 20010904//EN"
 "http://www.w3.org/TR/2001/REC-SVG-20010904/DTD/svg10.dtd">
<svg version="1.0" xmlns="http://www.w3.org/2000/svg"
 width="16.000000pt" height="16.000000pt" viewBox="0 0 16.000000 16.000000"
 preserveAspectRatio="xMidYMid meet">
<metadata>
Created by potrace 1.11, written by Peter Selinger 2001-2013
</metadata>
<g transform="translate(0.000000,16.000000) scale(0.003125,-0.003125)"
fill="#000000" stroke="none">
<path d="M255 4460 c-59 -29 -90 -81 -90 -149 0 -54 6 -66 134 -286 73 -126
143 -246 153 -265 11 -19 69 -118 127 -220 113 -193 210 -362 430 -743 72
-125 131 -231 131 -236 0 -4 -22 -46 -48 -92 -27 -46 -91 -158 -144 -249 -208
-361 -327 -567 -346 -600 -10 -19 -77 -134 -147 -255 -70 -121 -141 -245 -157
-275 -17 -30 -36 -62 -42 -70 -43 -58 -96 -172 -96 -208 0 -51 33 -113 77
-142 l37 -25 1781 0 1781 0 36 24 c30 21 71 78 114 156 14 27 263 459 790
1370 226 391 220 349 84 585 -52 91 -100 174 -107 185 -7 11 -15 27 -19 35 -4
8 -62 107 -127 220 -66 113 -129 221 -140 240 -94 168 -516 895 -540 933 -20
29 -47 55 -73 67 -40 20 -67 20 -1800 20 -1737 0 -1759 0 -1799 -20z m1795
-325 c0 -5 -9 -24 -19 -41 -16 -27 -109 -188 -360 -624 -39 -69 -76 -132 -81
-140 -5 -8 -59 -103 -121 -210 -137 -237 -129 -226 -144 -198 -6 13 -77 136
-157 273 -80 138 -156 270 -170 295 -14 25 -104 181 -200 347 -156 269 -173
302 -154 305 61 9 1406 2 1406 -7z m1633 5 c6 -6 260 -445 806 -1391 55 -96
101 -182 101 -189 0 -8 -27 -60 -60 -117 -34 -57 -69 -119 -79 -137 -10 -18
-53 -92 -96 -166 -43 -74 -85 -148 -95 -166 -10 -17 -77 -132 -148 -255 -72
-123 -196 -339 -277 -479 -81 -140 -149 -257 -151 -259 -9 -9 -3054 -6 -3054
3 0 5 46 89 101 185 56 97 113 196 127 220 14 25 38 68 55 95 16 28 39 66 49
85 64 112 605 1049 637 1101 11 19 24 41 27 49 4 7 76 133 161 279 84 146 153
269 153 274 0 4 5 8 10 8 6 0 10 5 10 10 0 6 55 106 123 223 68 117 178 307
245 422 l121 210 615 0 c338 0 617 -3 619 -5z"/>
</g>
</svg>
